# xmcd
# 
# Track frame offsets:
#     150
#     31615
#     67600
#     87137
#     108242
#     127110
#     142910
#     166340
#     231445
# 
# Disc length: 3360
# 
# Revision: 8
# Processed by: cddbd v1.5.2PL0 Copyright (c) Steve Scherf et al.
# Submitted via: BonkEnc v1.0.15
# 
DISCID=670d1e09
DTITLE=Mike Oldfield - Complete Mike Oldfield [CD2)
DYEAR=1985
DGENRE=New Age
TTITLE0=The complex section-Excerpt from Ommadawn
TTITLE1=The complex section-Excerpt from Tubular Bells
TTITLE2=The complex section-Excerpt from Hergest Ridge
TTITLE3=The complex section-Excerpt from Incantations
TTITLE4=The complex section-Excerpt from The Killing Fields (Evacuation)
TTITLE5=The live section-Sheba
TTITLE6=The live section-Mirage
TTITLE7=The live section-Platinum
TTITLE8=The live section-Mount Teide
EXTD=YEAR: 1985
EXTT0=
EXTT1=
EXTT2=
EXTT3=
EXTT4=
EXTT5=
EXTT6=
EXTT7=
EXTT8=
PLAYORDER=
